<svg id="visual" viewBox="0 0 900 200" width="900" height="200" xmlns="http://www.w3.org/2000/svg" xmlns:xlink="http://www.w3.org/1999/xlink" version="1.1"><rect x="0" y="0" width="900" height="200" fill="#1e2124"></rect><path d="M0 136L15 138.5C30 141 60 146 90 141.5C120 137 150 123 180 115.5C210 108 240 107 270 108C300 109 330 112 360 110.5C390 109 420 103 450 102.8C480 102.7 510 108.3 540 112C570 115.7 600 117.3 630 115.2C660 113 690 107 720 103.8C750 100.7 780 100.3 810 106.8C840 113.3 870 126.7 885 133.3L900 140L900 201L885 201C870 201 840 201 810 201C780 201 750 201 720 201C690 201 660 201 630 201C600 201 570 201 540 201C510 201 480 201 450 201C420 201 390 201 360 201C330 201 300 201 270 201C240 201 210 201 180 201C150 201 120 201 90 201C60 201 30 201 15 201L0 201Z" fill="#7289da" stroke-linecap="round" stroke-linejoin="miter"></path></svg>