<svg id="visual" viewBox="0 0 900 200" width="900" height="200" xmlns="http://www.w3.org/2000/svg" xmlns:xlink="http://www.w3.org/1999/xlink" version="1.1"><rect x="0" y="0" width="900" height="200" fill="#1e2124"></rect><path d="M0 74L18.8 79.7C37.7 85.3 75.3 96.7 112.8 96.7C150.3 96.7 187.7 85.3 225.2 74.5C262.7 63.7 300.3 53.3 337.8 50.8C375.3 48.3 412.7 53.7 450.2 65.7C487.7 77.7 525.3 96.3 562.8 106.2C600.3 116 637.7 117 675.2 110.5C712.7 104 750.3 90 787.8 81.7C825.3 73.3 862.7 70.7 881.3 69.3L900 68L900 0L881.3 0C862.7 0 825.3 0 787.8 0C750.3 0 712.7 0 675.2 0C637.7 0 600.3 0 562.8 0C525.3 0 487.7 0 450.2 0C412.7 0 375.3 0 337.8 0C300.3 0 262.7 0 225.2 0C187.7 0 150.3 0 112.8 0C75.3 0 37.7 0 18.8 0L0 0Z" fill="#7289da" stroke-linecap="round" stroke-linejoin="miter"></path></svg>