<svg id="visual" viewBox="0 0 900 200" width="900" height="200" xmlns="http://www.w3.org/2000/svg" xmlns:xlink="http://www.w3.org/1999/xlink" version="1.1"><rect x="0" y="0" width="900" height="200" fill="#1e2124"></rect><path d="M0 104L11.5 110.7C23 117.3 46 130.7 69 133.8C92 137 115 130 138.2 123.8C161.3 117.7 184.7 112.3 207.8 110.2C231 108 254 109 277 115.7C300 122.3 323 134.7 346 142C369 149.3 392 151.7 415.2 144.7C438.3 137.7 461.7 121.3 484.8 117C508 112.7 531 120.3 554 125C577 129.7 600 131.3 623 127C646 122.7 669 112.3 692.2 115.8C715.3 119.3 738.7 136.7 761.8 139C785 141.3 808 128.7 831 128C854 127.3 877 138.7 888.5 144.3L900 150L900 201L888.5 201C877 201 854 201 831 201C808 201 785 201 761.8 201C738.7 201 715.3 201 692.2 201C669 201 646 201 623 201C600 201 577 201 554 201C531 201 508 201 484.8 201C461.7 201 438.3 201 415.2 201C392 201 369 201 346 201C323 201 300 201 277 201C254 201 231 201 207.8 201C184.7 201 161.3 201 138.2 201C115 201 92 201 69 201C46 201 23 201 11.5 201L0 201Z" fill="#7289da" stroke-linecap="round" stroke-linejoin="miter"></path></svg>