<svg id="visual" viewBox="0 0 900 200" width="900" height="200" xmlns="http://www.w3.org/2000/svg" xmlns:xlink="http://www.w3.org/1999/xlink" version="1.1"><rect x="0" y="0" width="900" height="200" fill="#1e2124"></rect><path d="M0 147L15 138.8C30 130.7 60 114.3 90 115.7C120 117 150 136 180 137.3C210 138.7 240 122.3 270 122.8C300 123.3 330 140.7 360 140.3C390 140 420 122 450 122.5C480 123 510 142 540 141.2C570 140.3 600 119.7 630 115.8C660 112 690 125 720 132.7C750 140.3 780 142.7 810 143.3C840 144 870 143 885 142.5L900 142L900 201L885 201C870 201 840 201 810 201C780 201 750 201 720 201C690 201 660 201 630 201C600 201 570 201 540 201C510 201 480 201 450 201C420 201 390 201 360 201C330 201 300 201 270 201C240 201 210 201 180 201C150 201 120 201 90 201C60 201 30 201 15 201L0 201Z" fill="#7289da" stroke-linecap="round" stroke-linejoin="miter"></path></svg>